<svg xmlns="http://www.w3.org/2000/svg" viewBox="0 0 512 512" role="img" aria-labelledby="title desc">
  <title id="title">TanyaFillOut PWA icon</title>
  <desc id="desc">A blue rounded-square application icon with a white checklist sheet and a green success badge.</desc>
  <defs>
    <linearGradient id="bg" x1="0" y1="0" x2="1" y2="1">
      <stop offset="0%" stop-color="#3b82f6" />
      <stop offset="100%" stop-color="#1d4ed8" />
    </linearGradient>
  </defs>
  <rect width="512" height="512" rx="120" fill="url(#bg)" />
  <rect x="116" y="84" width="280" height="332" rx="52" fill="#ffffff" opacity="0.98" />
  <rect x="164" y="140" width="54" height="54" rx="14" fill="#dbeafe" />
  <path d="M177 167l16 16 28-36" fill="none" stroke="#2563eb" stroke-width="14" stroke-linecap="round" stroke-linejoin="round" />
  <rect x="242" y="158" width="110" height="20" rx="10" fill="#60a5fa" />
  <rect x="164" y="228" width="54" height="54" rx="14" fill="#dbeafe" />
  <path d="M177 255l16 16 28-36" fill="none" stroke="#2563eb" stroke-width="14" stroke-linecap="round" stroke-linejoin="round" />
  <rect x="242" y="246" width="110" height="20" rx="10" fill="#60a5fa" />
  <rect x="164" y="316" width="54" height="54" rx="14" fill="#dbeafe" />
  <path d="M177 343l16 16 28-36" fill="none" stroke="#2563eb" stroke-width="14" stroke-linecap="round" stroke-linejoin="round" />
  <rect x="242" y="334" width="110" height="20" rx="10" fill="#60a5fa" />
  <circle cx="370" cy="374" r="54" fill="#22c55e" />
  <path d="M346 375l16 16 32-40" fill="none" stroke="#ffffff" stroke-width="18" stroke-linecap="round" stroke-linejoin="round" />
</svg>

